. 
  
http://www.torrenting.com/        :     Greatest Movie Tracker on The Net!!!
 
http://www.Torrenting.com          :     Once & For all ;)


               www . Torrenting . Com 

(((((((((((((= Enjoy No RAR releases =))))))))))))))))))))


...................................NFO:....................................

.[img]http://img534.imageshack.us/img534/8092/transformers3blurayrele.jpg[/img]


[color=blue][size=5][b]Transformers.Dark.Of.The.Moon.2011.BDRip.XVID.AC3.HQ.Hive-CM8[/b][/size][/color]


[b]Thx Hive

CM8 Doing It Right The First Time :D


Source: Bluray

Video: 720x304 @bitrate 1650 2pass
Audio: English TrueHD AC3 640 to AC3 5.1 @448
Sample: yes, included
Subs: yes, english in srt /subs[/b]


[url]http://www.imdb.com/title/tt1399103/[/url]


General
Complete name                    : Transformers.Dark.Of.The.Moon.2011.BDRip.XVID.AC3.HQ.Hive-CM8.avi
Format                           : AVI
Format/Info                      : Audio Video Interleave
Format profile                   : OpenDML
File size                        : 2.27 GiB
Duration                         : 2h 34mn
Overall bit rate                 : 2 101 Kbps
Writing application              : AVI-Mux GUI 1.17.7, Aug  8 2006  20:59:17

Video
ID                               : 0
Format                           : MPEG-4 Visual
Format profile                   : Advanced Simple@L5
Format settings, BVOP            : 1
Format settings, QPel            : Yes
Format settings, GMC             : No warppoints
Format settings, Matrix          : Default (H.263)
Muxing mode                      : Packed bitstream
Codec ID                         : XVID
Codec ID/Hint                    : XviD
Duration                         : 2h 34mn
Bit rate                         : 1 647 Kbps
Width                            : 720 pixels
Height                           : 304 pixels
Display aspect ratio             : 2.40:1
Frame rate                       : 23.976 fps
Color space                      : YUV
Chroma subsampling               : 4:2:0
Bit depth                        : 8 bits
Scan type                        : Progressive
Compression mode                 : Lossy
Bits/(Pixel*Frame)               : 0.314
Stream size                      : 1.78 GiB (78%)
Writing library                  : XviD 1.2.1 (UTC 2008-12-04)

Audio
ID                               : 1
Format                           : AC-3
Format/Info                      : Audio Coding 3
Mode extension                   : CM (complete main)
Codec ID                         : 2000
Duration                         : 2h 34mn
Bit rate mode                    : Constant
Bit rate                         : 448 Kbps
Channel(s)                       : 6 channels
Channel positions                : Front: L C R, Side: L R, LFE
Sampling rate                    : 48.0 KHz
Bit depth                        : 16 bits
Compression mode                 : Lossy
Stream size                      : 495 MiB (21%)
Alignment                        : Aligned on interleaves
Interleave, duration             : 64 ms (1.53 video frames)
Interleave, preload duration     : 192 ms


Cast:
Shia LaBeouf              ...  Sam Witwicky
Josh Duhamel              ...  Lennox
John Turturro             ...  Simmons
Tyrese Gibson             ...  Epps
Rosie Huntington-Whiteley ...  Carly Spencer


Plot:
The Autobots learn of a Cybertronian spacecraft hidden on the Moon, and
race against the Decepticons to reach it and to learn its secrets.


[img]http://img813.imageshack.us/img813/8017/78466340.png[/img]
[img]http://img707.imageshack.us/img707/8739/trtr.png[/img]
[img]http://img835.imageshack.us/img835/8645/trtrtr.png[/img]
[img]http://img545.imageshack.us/img545/9581/trtrttrr.png[/img]
[img]http://img32.imageshack.us/img32/2425/trtrtttrrr.png[/img]
[img]http://img26.imageshack.us/img26/6007/trtrtttrrtrr.png[/img]
[img]http://img716.imageshack.us/img716/3258/trtrtttrrtrtrr.png[/img]
[img]http://img710.imageshack.us/img710/5539/trtrtttrrtrtrtrr.png[/img]
[img]http://img684.imageshack.us/img684/9823/trtrtttrrtrttrrtrr.png[/img]



Greetz

ViSiON,SiC,SANTi,3LT0N,YanKeeS,MAGNET,THC,T0XiC,LKRG,FANTASIA-PLAY,FANTASIA-M,FLAWL3SS,
D2U,WBZ,BHRG,NOVA,Vik,Rapeseed,SAFC,goldadvance,MEMORY100,KaN1vE,Unevano,Pinnz,Wayne
Mr Hive,cedrict wink,and all P2P groups
Great Work Guys :D

LOOKING FOR ANYTHING YOU WANT TO LOOK AND SOUND BETTER

CM8@hushmail.com